<svg width="466" height="44" viewBox="0 0 466 44" fill="none" xmlns="http://www.w3.org/2000/svg">
<path d="M35.95 35V14H42.61C51.61 14 54.7 18.74 54.7 24.23C54.7 30.23 50.98 35 42.16 35H35.95ZM42.55 18.35H40.6V30.65H42.55C47.8 30.65 49.9 28.13 49.9 24.23C49.9 20.69 48.01 18.35 42.55 18.35Z" fill="black"/>
<path d="M16.4658 0.5C19.2449 0.500106 21.4999 2.75507 21.5 5.53418V6.46289C21.4998 9.24481 19.2451 11.4999 16.4658 11.5C15.1301 11.5 13.8499 10.969 12.9062 10.0254L11 8.12207L9.09766 10.0254L9.09668 10.0264C8.15025 10.9693 6.87009 11.5 5.53418 11.5C2.75507 11.4999 0.500106 9.24493 0.5 6.46582V5.53418L0.506836 5.27539C0.64175 2.61643 2.84186 0.500102 5.53418 0.5C6.8699 0.5 8.15005 1.03102 9.09375 1.97461L10.999 3.87695L12.9023 1.97461L12.9033 1.97363C13.8498 1.03074 15.1299 0.5 16.4658 0.5ZM16.4629 3.50293C15.9226 3.50293 15.4035 3.71708 15.0234 4.09961L15.0225 4.10059L13.1211 6.00098L15.0225 7.90234C15.404 8.28385 15.924 8.5 16.4629 8.5C17.5865 8.49979 18.497 7.58946 18.4971 6.46582V5.53711C18.4969 4.41356 17.5864 3.50314 16.4629 3.50293ZM5.53418 3.5C4.41048 3.50011 3.50011 4.41048 3.5 5.53418V6.46289C3.50021 7.5865 4.41054 8.49696 5.53418 8.49707C6.07446 8.49707 6.5936 8.28292 6.97363 7.90039L6.97461 7.89941L8.87695 6L6.97461 4.09766C6.5931 3.71615 6.07305 3.5 5.53418 3.5Z" fill="black" stroke="black"/>
<path d="M29.4326 1.52757C29.7737 0.609273 30.6499 0 31.6295 0C33.2627 0 34.3951 1.62858 33.8264 3.15956L22.5674 33.4724C22.2263 34.3907 21.3501 35 20.3705 35C18.7373 35 17.6049 33.3714 18.1736 31.8404L29.4326 1.52757Z" fill="black"/>
<path d="M14.8438 17.3713C14.4569 16.5352 13.6196 16 12.6984 16C10.9722 16 9.82815 17.79 10.553 19.3565L17.1562 33.6287C17.5431 34.4648 18.3804 35 19.3016 35C21.0278 35 22.1718 33.2101 21.447 31.6435L14.8438 17.3713Z" fill="black"/>
<rect x="30" width="22" height="4" rx="2" fill="black"/>
<path d="M87.56 30.5V13.7H92.888C100.088 13.7 102.56 17.492 102.56 21.884C102.56 26.684 99.584 30.5 92.528 30.5H87.56ZM92.84 17.18H91.28V27.02H92.84C97.04 27.02 98.72 25.004 98.72 21.884C98.72 19.052 97.208 17.18 92.84 17.18ZM104.833 30.5V13.7H117.673V17.18H108.553V20.3H117.073V23.66H108.553V27.02H117.889V30.5H104.833ZM120.419 30.5V13.7H133.139V17.18H124.139V20.852H132.539V24.332H124.139V30.5H120.419ZM135.302 30.5V13.7H139.022V27.02H148.094V30.5H135.302ZM148.248 30.5L155.616 13.7H158.376L165.744 30.5H161.856L160.488 27.38H153.456L152.088 30.5H148.248ZM156.96 19.22L154.752 24.236H159.12L156.96 19.22ZM163.391 17.18V13.7H177.887V17.18H172.487V30.5H168.767V17.18H163.391ZM179.555 30.5V13.7H183.275V30.5H179.555ZM185.673 22.1C185.673 17.252 189.465 13.412 194.337 13.412C199.137 13.412 202.977 17.108 202.977 22.1C202.977 27.044 199.137 30.788 194.337 30.788C189.537 30.788 185.673 27.092 185.673 22.1ZM189.537 22.1C189.537 25.22 191.793 27.188 194.337 27.188C196.977 27.188 199.113 25.22 199.113 22.1C199.113 18.98 196.785 17.012 194.337 17.012C191.793 17.012 189.537 18.98 189.537 22.1ZM219.903 30.5H217.023L208.887 20.54V30.5H205.263V13.7H208.119L216.279 23.684V13.7H219.903V30.5ZM241.397 24.956L243.605 27.332C242.093 29.54 239.429 30.788 236.453 30.788C231.221 30.788 227.861 27.308 227.861 22.1C227.861 17.3 231.341 13.412 236.549 13.412C239.621 13.412 242.141 14.708 243.341 16.604L240.821 18.908C239.813 17.66 238.181 17.012 236.813 17.012C233.813 17.012 231.725 18.98 231.725 22.1C231.725 25.124 233.861 27.188 236.765 27.188C238.637 27.188 240.245 26.396 241.397 24.956ZM243.939 22.1C243.939 17.252 247.731 13.412 252.603 13.412C257.403 13.412 261.243 17.108 261.243 22.1C261.243 27.044 257.403 30.788 252.603 30.788C247.803 30.788 243.939 27.092 243.939 22.1ZM247.803 22.1C247.803 25.22 250.059 27.188 252.603 27.188C255.243 27.188 257.379 25.22 257.379 22.1C257.379 18.98 255.051 17.012 252.603 17.012C250.059 17.012 247.803 18.98 247.803 22.1ZM263.649 30.5V13.7H267.369V30.5H263.649ZM285.247 30.5H282.367L274.231 20.54V30.5H270.607V13.7H273.463L281.623 23.684V13.7H285.247V30.5Z" fill="black"/>
</svg>
