<?xml version="1.0" encoding="UTF-8"?>
<svg xmlns="http://www.w3.org/2000/svg" xmlns:xlink="http://www.w3.org/1999/xlink" width="32px" height="32px" viewBox="0 0 32 32" version="1.1">
<g id="surface1">
<path style=" stroke:none;fill-rule:evenodd;fill:rgb(0%,0%,0%);fill-opacity:1;" d="M -0.0117188 -0.0117188 C 10.652344 -0.0117188 21.320312 -0.0117188 31.988281 -0.0117188 C 31.988281 10.652344 31.988281 21.320312 31.988281 31.988281 C 21.320312 31.988281 10.652344 31.988281 -0.0117188 31.988281 C -0.0117188 21.320312 -0.0117188 10.652344 -0.0117188 -0.0117188 Z M -0.0117188 -0.0117188 "/>
<path style=" stroke:none;fill-rule:evenodd;fill:rgb(98.823529%,98.823529%,98.823529%);fill-opacity:1;" d="M 14.492188 9.214844 C 14.804688 9.207031 15.117188 9.214844 15.425781 9.226562 C 15.441406 9.242188 15.449219 9.257812 15.453125 9.28125 C 14.394531 13.566406 13.324219 17.847656 12.238281 22.121094 C 12.191406 22.339844 12.148438 22.5625 12.105469 22.785156 C 11.773438 22.820312 11.441406 22.820312 11.105469 22.785156 C 10.328125 20.703125 9.546875 18.625 8.761719 16.546875 C 8.414062 16.703125 8.070312 16.855469 7.71875 17 C 7.660156 16.960938 7.621094 16.910156 7.601562 16.839844 C 7.53125 16.667969 7.464844 16.496094 7.398438 16.320312 C 7.410156 16.277344 7.433594 16.25 7.480469 16.238281 C 8.101562 15.980469 8.722656 15.722656 9.347656 15.464844 C 9.390625 15.449219 9.429688 15.453125 9.464844 15.480469 C 10.046875 17.125 10.632812 18.769531 11.226562 20.414062 C 11.347656 20.757812 11.453125 21.105469 11.546875 21.453125 C 11.613281 20.964844 11.710938 20.488281 11.839844 20.011719 C 12.660156 16.644531 13.480469 13.277344 14.292969 9.90625 C 14.355469 9.671875 14.421875 9.441406 14.492188 9.214844 Z M 14.492188 9.214844 "/>
<path style=" stroke:none;fill-rule:evenodd;fill:rgb(98.431373%,98.431373%,98.431373%);fill-opacity:1;" d="M 8.171875 12.574219 C 8.550781 12.550781 8.886719 12.652344 9.1875 12.878906 C 9.371094 13.03125 9.554688 13.1875 9.734375 13.347656 C 9.871094 13.238281 10 13.117188 10.121094 12.988281 C 10.28125 12.871094 10.449219 12.761719 10.625 12.667969 C 11.105469 12.492188 11.546875 12.558594 11.945312 12.867188 C 12.160156 13.089844 12.261719 13.355469 12.253906 13.667969 C 12.191406 14.453125 11.765625 14.847656 10.972656 14.851562 C 10.664062 14.792969 10.386719 14.65625 10.148438 14.453125 C 10.007812 14.308594 9.867188 14.171875 9.71875 14.039062 C 9.347656 14.511719 8.863281 14.789062 8.265625 14.867188 C 7.46875 14.746094 7.113281 14.285156 7.199219 13.480469 C 7.3125 13.09375 7.546875 12.8125 7.90625 12.640625 C 8 12.617188 8.085938 12.59375 8.171875 12.574219 Z M 8.171875 12.574219 "/>
<path style=" stroke:none;fill-rule:evenodd;fill:rgb(99.215686%,99.215686%,99.215686%);fill-opacity:1;" d="M 16.679688 12.785156 C 18.101562 12.777344 19.523438 12.789062 20.945312 12.828125 C 23.070312 13.09375 24.320312 14.28125 24.691406 16.386719 C 24.855469 17.535156 24.808594 18.671875 24.558594 19.800781 C 24.15625 21.269531 23.21875 22.207031 21.746094 22.613281 C 21.277344 22.746094 20.796875 22.804688 20.308594 22.785156 C 19.097656 22.785156 17.890625 22.785156 16.679688 22.785156 C 16.679688 19.453125 16.679688 16.121094 16.679688 12.785156 Z M 16.679688 12.785156 "/>
<path style=" stroke:none;fill-rule:evenodd;fill:rgb(1.568628%,1.568628%,1.568628%);fill-opacity:1;" d="M 8.226562 13.027344 C 8.394531 13.015625 8.554688 13.046875 8.707031 13.121094 C 8.953125 13.289062 9.175781 13.484375 9.375 13.707031 C 9.136719 14.03125 8.824219 14.253906 8.441406 14.375 C 8.03125 14.390625 7.777344 14.203125 7.679688 13.800781 C 7.664062 13.402344 7.847656 13.144531 8.226562 13.027344 Z M 8.226562 13.027344 "/>
<path style=" stroke:none;fill-rule:evenodd;fill:rgb(1.176471%,1.176471%,1.176471%);fill-opacity:1;" d="M 11 13.027344 C 11.582031 13.042969 11.824219 13.335938 11.734375 13.90625 C 11.546875 14.308594 11.238281 14.449219 10.8125 14.320312 C 10.699219 14.269531 10.59375 14.207031 10.492188 14.132812 C 10.347656 13.988281 10.207031 13.847656 10.066406 13.707031 C 10.226562 13.546875 10.386719 13.386719 10.546875 13.226562 C 10.691406 13.136719 10.839844 13.070312 11 13.027344 Z M 11 13.027344 "/>
<path style=" stroke:none;fill-rule:evenodd;fill:rgb(0.392157%,0.392157%,0.392157%);fill-opacity:1;" d="M 17.667969 13.640625 C 18.53125 13.632812 19.390625 13.644531 20.253906 13.679688 C 22.449219 13.753906 23.628906 14.886719 23.785156 17.078125 C 23.863281 18.042969 23.765625 18.984375 23.492188 19.90625 C 23.121094 20.890625 22.425781 21.507812 21.398438 21.761719 C 20.847656 21.875 20.285156 21.9375 19.71875 21.945312 C 19.027344 21.96875 18.339844 21.964844 17.652344 21.933594 C 17.632812 19.167969 17.636719 16.402344 17.667969 13.640625 Z M 17.667969 13.640625 "/>
<path style=" stroke:none;fill-rule:evenodd;fill:rgb(71.372551%,71.764708%,72.549021%);fill-opacity:1;" d="M 16.679688 12.785156 C 16.679688 16.121094 16.679688 19.453125 16.679688 22.785156 C 17.890625 22.785156 19.097656 22.785156 20.308594 22.785156 C 19.09375 22.8125 17.875 22.820312 16.652344 22.8125 C 16.644531 19.464844 16.652344 16.125 16.679688 12.785156 Z M 16.679688 12.785156 "/>
</g>
</svg>
