<svg width="243" height="160" viewBox="0 0 243 160" fill="none" xmlns="http://www.w3.org/2000/svg">
<path fill-rule="evenodd" clip-rule="evenodd" d="M2 24.9589C2 13.6654 11.1624 4.51074 22.4482 4.51074C27.8772 4.51074 33.0729 6.66523 36.9074 10.4998L47.0965 20.6733L57.27 10.4998C61.1201 6.66523 66.3158 4.51074 71.7448 4.51074C83.0384 4.51074 92.193 13.6732 92.193 24.9589V29.1435C92.193 40.4448 83.0306 49.6072 71.7448 49.6072C66.3158 49.6072 61.1201 47.4527 57.2856 43.6182L47.0965 33.4447L36.9229 43.6182C33.0729 47.4527 27.8772 49.6072 22.4482 49.6072C11.1624 49.6072 2 40.4448 2 29.159V24.9745V24.9589ZM40.7186 27.059L30.545 16.8854C28.4061 14.7465 25.4816 13.5332 22.456 13.5332C16.1403 13.5332 11.0224 18.651 11.0224 24.9667V29.1513C11.0224 35.4669 16.1403 40.5848 22.456 40.5848C25.4894 40.5848 28.4061 39.387 30.545 37.2325L40.7186 27.0668V27.059ZM53.4744 27.059L63.6479 37.2325C65.7869 39.3715 68.7114 40.5848 71.737 40.5848C78.0527 40.5848 83.1706 35.4669 83.1706 29.1513V24.9667C83.1706 18.651 78.0527 13.5332 71.737 13.5332C68.7036 13.5332 65.7869 14.731 63.6479 16.8854L53.4822 27.0512H53.4666L53.4744 27.059Z" fill="url(#paint0_linear_438_2238)" stroke="url(#paint1_linear_438_2238)" stroke-width="3.99773" stroke-miterlimit="22.9256"/>
<path fill-rule="evenodd" clip-rule="evenodd" d="M136.099 0H150.59H228.711C230.539 0 232.017 1.47781 232.017 3.30562V14.7314C232.017 16.5592 230.539 18.037 228.711 18.037H148.645L97.5131 155.699C97.0308 156.998 95.7941 157.853 94.4097 157.853H90.5596H78.916H74.3504C73.0592 157.853 71.8925 157.107 71.3481 155.932L34.7606 76.8538C33.7495 74.6604 35.344 72.1559 37.7629 72.1559H53.9721C55.2633 72.1559 56.43 72.9026 56.9744 74.0771L83.7694 131.992L131.993 2.15449C132.475 0.855573 133.712 0 135.096 0H136.107L136.099 0ZM159.433 160V67.3881H188.803C228.494 67.3881 242.121 88.2952 242.121 112.5C242.121 138.961 225.717 159.992 186.819 159.992H159.433V160ZM188.538 86.5762H179.936V140.82H188.538C211.693 140.82 220.949 129.705 220.949 112.508C220.949 96.8976 212.611 86.5762 188.538 86.5762Z" fill="url(#paint2_linear_438_2238)"/>
<defs>
<linearGradient id="paint0_linear_438_2238" x1="80.4679" y1="42.2278" x2="58.1612" y2="-14.7423" gradientUnits="userSpaceOnUse">
<stop stop-color="#7D34D7"/>
<stop offset="0.5" stop-color="#0054C2"/>
<stop offset="1" stop-color="#001D42"/>
</linearGradient>
<linearGradient id="paint1_linear_438_2238" x1="80.4679" y1="42.2278" x2="58.1612" y2="-14.7423" gradientUnits="userSpaceOnUse">
<stop stop-color="#7D34D7"/>
<stop offset="0.5" stop-color="#0054C2"/>
<stop offset="1" stop-color="#001D42"/>
</linearGradient>
<linearGradient id="paint2_linear_438_2238" x1="215.124" y1="133.818" x2="112.01" y2="-37.0841" gradientUnits="userSpaceOnUse">
<stop stop-color="#7D34D7"/>
<stop offset="0.5" stop-color="#0054C2"/>
<stop offset="1" stop-color="#001D42"/>
</linearGradient>
</defs>
</svg>
