<svg width="277" height="45" viewBox="0 0 277 45" fill="none" xmlns="http://www.w3.org/2000/svg">
<path d="M35.95 35.5V14.5H42.61C51.61 14.5 54.7 19.24 54.7 24.73C54.7 30.73 50.98 35.5 42.16 35.5H35.95ZM42.55 18.85H40.6V31.15H42.55C47.8 31.15 49.9 28.63 49.9 24.73C49.9 21.19 48.01 18.85 42.55 18.85Z" fill="black"/>
<path d="M16.4658 1C19.2449 1.00011 21.4999 3.25507 21.5 6.03418V6.96289C21.4998 9.74481 19.2451 11.9999 16.4658 12C15.1301 12 13.8499 11.469 12.9062 10.5254L11 8.62207L9.09766 10.5254L9.09668 10.5264C8.15025 11.4693 6.87009 12 5.53418 12C2.75507 11.9999 0.500106 9.74493 0.5 6.96582V6.03418L0.506836 5.77539C0.64175 3.11643 2.84186 1.0001 5.53418 1C6.8699 1 8.15005 1.53102 9.09375 2.47461L10.999 4.37695L12.9023 2.47461L12.9033 2.47363C13.8498 1.53074 15.1299 1 16.4658 1ZM16.4629 4.00293C15.9226 4.00293 15.4035 4.21708 15.0234 4.59961L15.0225 4.60059L13.1211 6.50098L15.0225 8.40234C15.404 8.78385 15.924 9 16.4629 9C17.5865 8.99979 18.497 8.08946 18.4971 6.96582V6.03711C18.4969 4.91356 17.5864 4.00314 16.4629 4.00293ZM5.53418 4C4.41048 4.00011 3.50011 4.91048 3.5 6.03418V6.96289C3.50021 8.0865 4.41054 8.99696 5.53418 8.99707C6.07446 8.99707 6.5936 8.78292 6.97363 8.40039L6.97461 8.39941L8.87695 6.5L6.97461 4.59766C6.5931 4.21615 6.07305 4 5.53418 4Z" fill="black" stroke="black"/>
<path d="M30 0.5H35L22 35.5H17L30 0.5Z" fill="black"/>
<path d="M13.2093 16.5H8L16.7907 35.5H22L13.2093 16.5Z" fill="black"/>
<rect x="30" y="0.5" width="22" height="4" fill="black"/>
<path d="M77.56 31V14.2H82.888C90.088 14.2 92.56 17.992 92.56 22.384C92.56 27.184 89.584 31 82.528 31H77.56ZM82.84 17.68H81.28V27.52H82.84C87.04 27.52 88.72 25.504 88.72 22.384C88.72 19.552 87.208 17.68 82.84 17.68ZM94.8334 31V14.2H107.673V17.68H98.5534V20.8H107.073V24.16H98.5534V27.52H107.889V31H94.8334ZM110.419 31V14.2H123.139V17.68H114.139V21.352H122.539V24.832H114.139V31H110.419ZM125.302 31V14.2H129.022V27.52H138.094V31H125.302ZM138.248 31L145.616 14.2H148.376L155.744 31H151.856L150.488 27.88H143.456L142.088 31H138.248ZM146.96 19.72L144.752 24.736H149.12L146.96 19.72ZM153.391 17.68V14.2H167.887V17.68H162.487V31H158.767V17.68H153.391ZM169.555 31V14.2H173.275V31H169.555ZM175.673 22.6C175.673 17.752 179.465 13.912 184.337 13.912C189.137 13.912 192.977 17.608 192.977 22.6C192.977 27.544 189.137 31.288 184.337 31.288C179.537 31.288 175.673 27.592 175.673 22.6ZM179.537 22.6C179.537 25.72 181.793 27.688 184.337 27.688C186.977 27.688 189.113 25.72 189.113 22.6C189.113 19.48 186.785 17.512 184.337 17.512C181.793 17.512 179.537 19.48 179.537 22.6ZM209.903 31H207.023L198.887 21.04V31H195.263V14.2H198.119L206.279 24.184V14.2H209.903V31ZM231.397 25.456L233.605 27.832C232.093 30.04 229.429 31.288 226.453 31.288C221.221 31.288 217.861 27.808 217.861 22.6C217.861 17.8 221.341 13.912 226.549 13.912C229.621 13.912 232.141 15.208 233.341 17.104L230.821 19.408C229.813 18.16 228.181 17.512 226.813 17.512C223.813 17.512 221.725 19.48 221.725 22.6C221.725 25.624 223.861 27.688 226.765 27.688C228.637 27.688 230.245 26.896 231.397 25.456ZM233.939 22.6C233.939 17.752 237.731 13.912 242.603 13.912C247.403 13.912 251.243 17.608 251.243 22.6C251.243 27.544 247.403 31.288 242.603 31.288C237.803 31.288 233.939 27.592 233.939 22.6ZM237.803 22.6C237.803 25.72 240.059 27.688 242.603 27.688C245.243 27.688 247.379 25.72 247.379 22.6C247.379 19.48 245.051 17.512 242.603 17.512C240.059 17.512 237.803 19.48 237.803 22.6ZM253.649 31V14.2H257.369V31H253.649ZM275.247 31H272.367L264.231 21.04V31H260.607V14.2H263.463L271.623 24.184V14.2H275.247V31Z" fill="black"/>
</svg>
