<?xml version="1.0" encoding="UTF-8"?>
<!DOCTYPE svg PUBLIC "-//W3C//DTD SVG 1.1//EN" "http://www.w3.org/Graphics/SVG/1.1/DTD/svg11.dtd">
<svg xmlns="http://www.w3.org/2000/svg" version="1.1" width="1200px" height="1200px" style="shape-rendering:geometricPrecision; text-rendering:geometricPrecision; image-rendering:optimizeQuality; fill-rule:evenodd; clip-rule:evenodd" xmlns:xlink="http://www.w3.org/1999/xlink">
<g><path style="opacity:1" fill="#000000" d="M -0.5,-0.5 C 399.5,-0.5 799.5,-0.5 1199.5,-0.5C 1199.5,399.5 1199.5,799.5 1199.5,1199.5C 799.5,1199.5 399.5,1199.5 -0.5,1199.5C -0.5,799.5 -0.5,399.5 -0.5,-0.5 Z"/></g>
<g><path style="opacity:1" fill="#fcfcfc" d="M 543.5,345.5 C 555.171,345.333 566.838,345.5 578.5,346C 579.022,346.561 579.355,347.228 579.5,348C 539.86,508.728 499.693,669.228 459,829.5C 457.177,837.795 455.51,846.128 454,854.5C 441.562,855.821 429.062,855.821 416.5,854.5C 387.357,776.4 358.023,698.4 328.5,620.5C 315.583,626.361 302.583,632.028 289.5,637.5C 287.282,636.076 285.782,634.076 285,631.5C 282.361,625.055 279.861,618.555 277.5,612C 277.82,610.347 278.82,609.347 280.5,609C 303.833,599.333 327.167,589.667 350.5,580C 352.112,579.28 353.612,579.446 355,580.5C 376.793,642.209 398.793,703.876 421,765.5C 425.472,778.396 429.472,791.396 433,804.5C 435.517,786.249 439.183,768.249 444,750.5C 474.819,624.222 505.486,497.889 536,371.5C 538.321,362.692 540.821,354.026 543.5,345.5 Z"/></g>
<g><path style="opacity:1" fill="#fbfbfb" d="M 306.5,471.5 C 320.619,470.596 333.285,474.429 344.5,483C 351.445,488.719 358.278,494.553 365,500.5C 370.122,496.38 374.956,491.88 379.5,487C 385.566,482.605 391.9,478.605 398.5,475C 416.465,468.479 432.965,470.979 448,482.5C 456.006,490.854 459.839,500.854 459.5,512.5C 457.182,541.982 441.182,556.816 411.5,557C 399.848,554.67 389.514,549.67 380.5,542C 375.292,536.624 369.959,531.457 364.5,526.5C 350.539,544.23 332.372,554.564 310,557.5C 280.15,552.973 266.817,535.64 270,505.5C 274.163,491.009 282.996,480.509 296.5,474C 299.952,473.115 303.286,472.282 306.5,471.5 Z"/></g>
<g><path style="opacity:1" fill="#fdfdfd" d="M 625.5,479.5 C 678.848,479.079 732.181,479.579 785.5,481C 865.188,491.024 912.022,535.524 926,614.5C 932.014,657.515 930.348,700.182 921,742.5C 905.86,797.64 870.693,832.807 815.5,848C 797.843,852.954 779.843,855.121 761.5,854.5C 716.167,854.5 670.833,854.5 625.5,854.5C 625.5,729.5 625.5,604.5 625.5,479.5 Z"/></g>
<g><path style="opacity:1" fill="#040404" d="M 308.5,488.5 C 314.834,488.067 320.834,489.234 326.5,492C 335.786,498.288 344.119,505.621 351.5,514C 342.628,526.199 330.961,534.533 316.5,539C 301.116,539.717 291.616,532.55 288,517.5C 287.459,502.572 294.292,492.906 308.5,488.5 Z"/></g>
<g><path style="opacity:1" fill="#030303" d="M 412.5,488.5 C 434.253,489.082 443.419,500.082 440,521.5C 432.953,536.607 421.453,541.774 405.5,537C 401.241,535.066 397.241,532.732 393.5,530C 388.1,524.6 382.767,519.267 377.5,514C 383.478,508.022 389.478,502.022 395.5,496C 400.888,492.603 406.555,490.103 412.5,488.5 Z"/></g>
<g><path style="opacity:1" fill="#010101" d="M 662.5,511.5 C 694.849,511.163 727.182,511.663 759.5,513C 841.9,515.733 886.067,558.233 892,640.5C 894.928,676.557 891.261,711.891 881,746.5C 867.097,783.397 840.93,806.564 802.5,816C 781.731,820.259 760.731,822.592 739.5,823C 713.594,823.828 687.761,823.661 662,822.5C 661.169,718.763 661.336,615.097 662.5,511.5 Z"/></g>
<g><path style="opacity:1" fill="#b6b7b9" d="M 625.5,479.5 C 625.5,604.5 625.5,729.5 625.5,854.5C 670.833,854.5 716.167,854.5 761.5,854.5C 716.003,855.499 670.336,855.832 624.5,855.5C 624.167,729.999 624.5,604.666 625.5,479.5 Z"/></g>
</svg>
