<svg width="58" height="38" viewBox="0 0 58 38" fill="none" xmlns="http://www.w3.org/2000/svg">
<path fill-rule="evenodd" clip-rule="evenodd" d="M1 6.77177C1 4.16013 3.11881 2.04312 5.72865 2.04312C6.9841 2.04312 8.1856 2.54135 9.07233 3.42808L11.4286 5.78071L13.7812 3.42808C14.6715 2.54135 15.873 2.04312 17.1285 2.04312C19.7401 2.04312 21.8571 4.16193 21.8571 6.77177V7.73944C21.8571 10.3529 19.7383 12.4717 17.1285 12.4717C15.873 12.4717 14.6715 11.9735 13.7848 11.0867L11.4286 8.73409L9.07593 11.0867C8.1856 11.9735 6.9841 12.4717 5.72865 12.4717C3.11881 12.4717 1 10.3529 1 7.74304V6.77537V6.77177ZM9.95367 7.2574L7.60104 4.90477C7.10641 4.41014 6.43012 4.12955 5.73045 4.12955C4.26994 4.12955 3.08643 5.31306 3.08643 6.77357V7.74124C3.08643 9.20174 4.26994 10.3853 5.73045 10.3853C6.43192 10.3853 7.10641 10.1083 7.60104 9.61004L9.95367 7.2592V7.2574ZM12.9035 7.2574L15.2561 9.61004C15.7507 10.1047 16.427 10.3853 17.1267 10.3853C18.5872 10.3853 19.7707 9.20174 19.7707 7.74124V6.77357C19.7707 5.31306 18.5872 4.12955 17.1267 4.12955C16.4252 4.12955 15.7507 4.40655 15.2561 4.90477L12.9053 7.2556H12.9017L12.9035 7.2574Z" fill="black" stroke="black" stroke-miterlimit="22.9256"/>
<path fill-rule="evenodd" clip-rule="evenodd" d="M32.0105 1H35.3614H53.427C53.8497 1 54.1914 1.34174 54.1914 1.76443V4.40664C54.1914 4.82932 53.8497 5.17107 53.427 5.17107H34.9117L23.0874 37.0053C22.9759 37.3057 22.6899 37.5036 22.3697 37.5036H21.4794H18.7868H17.731C17.4324 37.5036 17.1626 37.3309 17.0367 37.0593L8.57589 18.7724C8.34207 18.2652 8.71079 17.6861 9.27017 17.6861H13.0186C13.3171 17.6861 13.5869 17.8587 13.7128 18.1303L19.9092 31.5231L31.0608 1.49823C31.1723 1.19785 31.4583 1 31.7785 1H32.0123L32.0105 1ZM37.4064 38V16.5835H44.1981C53.3766 16.5835 56.5279 21.4183 56.5279 27.0157C56.5279 33.1347 52.7345 37.9982 43.7395 37.9982H37.4064V38ZM44.137 21.0208H42.1477V33.5645H44.137C49.4916 33.5645 51.6319 30.9943 51.6319 27.0174C51.6319 23.4076 49.7038 21.0208 44.137 21.0208Z" fill="black"/>
</svg>
