<svg width="40" height="40" viewBox="0 0 40 40" fill="none" xmlns="http://www.w3.org/2000/svg">
<path d="M5 5C5 3.61719 3.88281 2.5 2.5 2.5C1.11719 2.5 0 3.61719 0 5V31.25C0 34.7031 2.79688 37.5 6.25 37.5H37.5C38.8828 37.5 40 36.3828 40 35C40 33.6172 38.8828 32.5 37.5 32.5H6.25C5.5625 32.5 5 31.9375 5 31.25V5ZM12.5 27.5H35C36.3828 27.5 37.5 26.3828 37.5 25V19.6719C37.5 19.0781 37.2891 18.5 36.8984 18.0469L31.7578 12.0469C30.8125 10.9375 29.125 10.875 28.0938 11.9062L26.4531 13.5469C25.6719 14.3281 24.3906 14.2656 23.6875 13.4219L20.625 9.75C19.6406 8.57031 17.8359 8.54687 16.8203 9.70312L10.6172 16.7969C10.2188 17.25 10 17.8359 10 18.4453V25.0078C10 26.3906 11.1172 27.5078 12.5 27.5078V27.5Z" fill="#D6DBEB"/>
</svg>
