<svg width="40" height="40" viewBox="0 0 40 40" fill="none" xmlns="http://www.w3.org/2000/svg">
<path d="M18.1641 0.404336C19.3281 -0.134779 20.6719 -0.134779 21.8359 0.404336L38.9141 8.29573C39.5781 8.60045 40 9.26458 40 9.99902C40 10.7335 39.5781 11.3976 38.9141 11.7023L21.8359 19.5937C20.6719 20.1328 19.3281 20.1328 18.1641 19.5937L1.08594 11.7023C0.421875 11.3898 0 10.7257 0 9.99902C0 9.27239 0.421875 8.60045 1.08594 8.29573L18.1641 0.404336ZM34.7578 16.3746L38.9141 18.2967C39.5781 18.6014 40 19.2656 40 20C40 20.7344 39.5781 21.3986 38.9141 21.7033L21.8359 29.5947C20.6719 30.1338 19.3281 30.1338 18.1641 29.5947L1.08594 21.7033C0.421875 21.3908 0 20.7266 0 20C0 19.2734 0.421875 18.6014 1.08594 18.2967L5.24219 16.3746L17.1172 21.8596C18.9453 22.7034 21.0547 22.7034 22.8828 21.8596L34.7578 16.3746ZM22.8828 31.8605L34.7578 26.3756L38.9141 28.2977C39.5781 28.6024 40 29.2665 40 30.001C40 30.7354 39.5781 31.3995 38.9141 31.7043L21.8359 39.5957C20.6719 40.1348 19.3281 40.1348 18.1641 39.5957L1.08594 31.7043C0.421875 31.3917 0 30.7276 0 30.001C0 29.2743 0.421875 28.6024 1.08594 28.2977L5.24219 26.3756L17.1172 31.8605C18.9453 32.7044 21.0547 32.7044 22.8828 31.8605Z" fill="#141F36"/>
</svg>
