<svg width="40" height="40" viewBox="0 0 40 40" fill="none" xmlns="http://www.w3.org/2000/svg">
<g clip-path="url(#clip0_438_2467)">
<path d="M5.71429 0C2.5625 0 0 2.5625 0 5.71429V34.2857C0 37.4375 2.5625 40 5.71429 40H34.2857C37.4375 40 40 37.4375 40 34.2857V5.71429C40 2.5625 37.4375 0 34.2857 0H5.71429ZM11.4286 8.57143C12.1863 8.57143 12.9131 8.87245 13.4489 9.40827C13.9847 9.94409 14.2857 10.6708 14.2857 11.4286C14.2857 12.1863 13.9847 12.9131 13.4489 13.4489C12.9131 13.9847 12.1863 14.2857 11.4286 14.2857C10.6708 14.2857 9.94409 13.9847 9.40827 13.4489C8.87245 12.9131 8.57143 12.1863 8.57143 11.4286C8.57143 10.6708 8.87245 9.94409 9.40827 9.40827C9.94409 8.87245 10.6708 8.57143 11.4286 8.57143ZM8.57143 28.5714C8.57143 27.8137 8.87245 27.0869 9.40827 26.5511C9.94409 26.0153 10.6708 25.7143 11.4286 25.7143C12.1863 25.7143 12.9131 26.0153 13.4489 26.5511C13.9847 27.0869 14.2857 27.8137 14.2857 28.5714C14.2857 29.3292 13.9847 30.0559 13.4489 30.5917C12.9131 31.1276 12.1863 31.4286 11.4286 31.4286C10.6708 31.4286 9.94409 31.1276 9.40827 30.5917C8.87245 30.0559 8.57143 29.3292 8.57143 28.5714ZM20 17.1429C20.7578 17.1429 21.4845 17.4439 22.0203 17.9797C22.5561 18.5155 22.8571 19.2422 22.8571 20C22.8571 20.7578 22.5561 21.4845 22.0203 22.0203C21.4845 22.5561 20.7578 22.8571 20 22.8571C19.2422 22.8571 18.5155 22.5561 17.9797 22.0203C17.4439 21.4845 17.1429 20.7578 17.1429 20C17.1429 19.2422 17.4439 18.5155 17.9797 17.9797C18.5155 17.4439 19.2422 17.1429 20 17.1429ZM25.7143 11.4286C25.7143 10.6708 26.0153 9.94409 26.5511 9.40827C27.0869 8.87245 27.8137 8.57143 28.5714 8.57143C29.3292 8.57143 30.0559 8.87245 30.5917 9.40827C31.1276 9.94409 31.4286 10.6708 31.4286 11.4286C31.4286 12.1863 31.1276 12.9131 30.5917 13.4489C30.0559 13.9847 29.3292 14.2857 28.5714 14.2857C27.8137 14.2857 27.0869 13.9847 26.5511 13.4489C26.0153 12.9131 25.7143 12.1863 25.7143 11.4286ZM28.5714 25.7143C29.3292 25.7143 30.0559 26.0153 30.5917 26.5511C31.1276 27.0869 31.4286 27.8137 31.4286 28.5714C31.4286 29.3292 31.1276 30.0559 30.5917 30.5917C30.0559 31.1276 29.3292 31.4286 28.5714 31.4286C27.8137 31.4286 27.0869 31.1276 26.5511 30.5917C26.0153 30.0559 25.7143 29.3292 25.7143 28.5714C25.7143 27.8137 26.0153 27.0869 26.5511 26.5511C27.0869 26.0153 27.8137 25.7143 28.5714 25.7143Z" fill="#141F36"/>
</g>
<defs>
<clipPath id="clip0_438_2467">
<rect width="40" height="40" fill="white"/>
</clipPath>
</defs>
</svg>
