<svg width="40" height="40" viewBox="0 0 40 40" fill="none" xmlns="http://www.w3.org/2000/svg">
<g clip-path="url(#clip0_438_2471)">
<path d="M6.25498 12.1226C0.517557 15.4351 -1.22587 23.1654 2.36267 29.3809C5.95121 35.5964 13.5176 37.9517 19.255 34.6392L33.1114 26.6392C38.8488 23.3267 40.5922 15.5964 37.0037 9.38089C33.4151 3.16535 25.8488 0.810059 20.1114 4.12256L6.25498 12.1226ZM26.2303 8.72082C26.8045 8.3893 27.4979 8.31847 28.1579 8.52391C28.8178 8.72936 29.3904 9.19425 29.7495 9.81631C30.1087 10.4384 30.225 11.1666 30.0729 11.8409C29.9209 12.5152 29.5128 13.0803 28.9386 13.4118C28.3644 13.7433 27.6711 13.8141 27.0111 13.6087C26.3511 13.4033 25.7785 12.9384 25.4194 12.3163C25.0602 11.6942 24.9439 10.966 25.096 10.2917C25.2481 9.6174 25.6561 9.05234 26.2303 8.72082ZM25.2053 19.9455C24.8461 19.3234 24.7298 18.5951 24.8819 17.9208C25.034 17.2466 25.442 16.6815 26.0162 16.35C26.5904 16.0185 27.2838 15.9476 27.9437 16.1531C28.6037 16.3585 29.1763 16.8234 29.5354 17.4455C29.8946 18.0675 30.0109 18.7958 29.8588 19.4701C29.7068 20.1444 29.2987 20.7094 28.7245 21.041C28.1503 21.3725 27.457 21.4433 26.797 21.2379C26.137 21.0324 25.5644 20.5675 25.2053 19.9455ZM9.5601 20.8472C9.10984 20.0673 9.32676 19.1055 10.0466 18.6899C10.7665 18.2743 11.7079 18.5673 12.1582 19.3472L13.2415 21.2236L14.9736 20.2236C15.6934 19.808 16.6348 20.101 17.0851 20.8809C17.5354 21.6608 17.3184 22.6226 16.5986 23.0382L14.8665 24.0382L15.9498 25.9146C16.4001 26.6944 16.1832 27.6562 15.4633 28.0719C14.7434 28.4875 13.802 28.1944 13.3518 27.4146L12.2684 25.5382L10.5364 26.5382C9.8165 26.9538 8.87511 26.6608 8.42485 25.8809C7.97459 25.101 8.1915 24.1392 8.91139 23.7236L10.6434 22.7236L9.5601 20.8472Z" fill="#141F36"/>
</g>
<defs>
<clipPath id="clip0_438_2471">
<rect width="40" height="40" fill="white"/>
</clipPath>
</defs>
</svg>
