<svg width="40" height="40" viewBox="0 0 40 40" fill="none" xmlns="http://www.w3.org/2000/svg">
<path d="M3.71875 23.4687L17.8359 36.6484C18.4219 37.1952 19.1953 37.4999 20 37.4999C20.8047 37.4999 21.5781 37.1952 22.1641 36.6484L36.2812 23.4687C38.6562 21.2577 40 18.1562 40 14.914V14.4609C40 8.99993 36.0547 4.34368 30.6719 3.44524C27.1094 2.85149 23.4844 4.01556 20.9375 6.56243L20 7.49993L19.0625 6.56243C16.5156 4.01556 12.8906 2.85149 9.32812 3.44524C3.94531 4.34368 0 8.99993 0 14.4609V14.914C0 18.1562 1.34375 21.2577 3.71875 23.4687Z" fill="#141F36"/>
</svg>
