<svg width="40" height="40" viewBox="0 0 40 40" fill="none" xmlns="http://www.w3.org/2000/svg">
<g clip-path="url(#clip0_438_2463)">
<path d="M31.4286 17.1429C36.1607 17.1429 40 13.3036 40 8.57143C40 3.83929 36.1607 0 31.4286 0C26.6964 0 22.8571 3.83929 22.8571 8.57143C22.8571 8.92857 22.875 9.28571 22.9196 9.63393L14.5179 13.8304C12.9821 12.3393 10.8839 11.4286 8.57143 11.4286C3.83929 11.4286 0 15.2679 0 20C0 24.7321 3.83929 28.5714 8.57143 28.5714C10.8839 28.5714 12.9821 27.6607 14.5179 26.1696L22.9196 30.3661C22.875 30.7143 22.8571 31.0625 22.8571 31.4286C22.8571 36.1607 26.6964 40 31.4286 40C36.1607 40 40 36.1607 40 31.4286C40 26.6964 36.1607 22.8571 31.4286 22.8571C29.1161 22.8571 27.0179 23.7679 25.4821 25.2589L17.0804 21.0625C17.125 20.7143 17.1429 20.3661 17.1429 20C17.1429 19.6339 17.125 19.2857 17.0804 18.9375L25.4821 14.7411C27.0179 16.2321 29.1161 17.1429 31.4286 17.1429Z" fill="#141F36"/>
</g>
<defs>
<clipPath id="clip0_438_2463">
<rect width="40" height="40" fill="white"/>
</clipPath>
</defs>
</svg>
